<?xml version="1.0" encoding="utf-8"?>
<!-- Generator: Adobe Illustrator 19.0.0, SVG Export Plug-In . SVG Version: 6.00 Build 0)  -->
<svg version="1.1" xmlns="http://www.w3.org/2000/svg" xmlns:xlink="http://www.w3.org/1999/xlink" x="0px" y="0px"
	 viewBox="606 0 141.7 141.7" style="enable-background:new 606 0 141.7 141.7;" xml:space="preserve">
<style type="text/css">
	.st0{display:none;}
	.st1{display:inline;fill:none;stroke:#E6E7E8;stroke-miterlimit:10;}
	.st2{fill:#EF6D2B;}
	.st3{fill:#ED892E;}
	.st4{fill:#6D6E71;}
	.st5{fill:#A7A9AC;}
	.st6{fill:#808285;}
	.st7{fill:#EAA22F;}
	.st8{fill:#E5B233;}
	.st9{fill:#E2C034;}
	.st10{fill:#BCBEC0;}
	.st11{fill:#939598;}
	.st12{fill:#EAD721;}
	.st13{fill:#F9E23A;}
	.st14{fill:#FFE66C;}
	.st15{fill:#FFEA92;}
	.st16{fill:#FFEEA4;}
	.st17{fill:#D1D3D4;}
	.st18{fill:#E6E7E8;}
	.st19{fill:#F1F2F2;}
	.st20{fill:#FFF2BB;}
	.st21{fill:#0063A0;}
	.st22{fill:#0F6EBC;}
	.st23{fill:#1390B7;}
</style>
<g id="Layer_1">
	<g id="Layer_2" class="st0">
		<rect id="XMLID_21_" x="-638" y="9.9" class="st1" width="121.9" height="121.9"/>
		<rect id="XMLID_49_" x="-475.3" y="9.9" class="st1" width="121.9" height="121.9"/>
		<rect id="XMLID_228_" x="-313.5" y="9.9" class="st1" width="121.9" height="121.9"/>
		<rect id="XMLID_371_" x="-151.8" y="9.9" class="st1" width="121.9" height="121.9"/>
		<rect id="XMLID_385_" x="9.9" y="9.9" class="st1" width="121.9" height="121.9"/>
	</g>
	<circle id="XMLID_292_" class="st2" cx="669.9" cy="67" r="23.5"/>
	<circle id="XMLID_291_" class="st3" cx="670.7" cy="65.2" r="19.7"/>
	<circle id="XMLID_1_" class="st2" cx="70.5" cy="69.1" r="27"/>
	<path id="XMLID_48_" class="st4" d="M312.4,53.3c-0.7-8.1,4.8-14.5,6.4-16.2c6.5-6.9,14.8-7.5,16.6-7.6
		c3.9-10.6,12.6-18.4,22.2-19.4c12.5-1.3,23.7,9,25.9,12.3c0.2,0.2,0.6,0.9,1.4,1.5c3,2.4,7.1,1.4,10.5,1.2
		c5.9-0.3,11.2,1.7,13.4,3.2c8.1,5.6,7.8,17,7.7,18c4,1,8.2,2,11.6,4.3s6.1,6.3,5.8,10.4c-0.3,3.7-3,6.9-6,9
		c-7.7,5.2-16.2,5.4-23.7,5.3c0,0-8.4,0-40.7,0.4c-19.6,0.3-22,1.4-28.9-1C332.3,74,313.6,67.3,312.4,53.3z"/>
	<path id="XMLID_417_" class="st5" d="M161.1,65.4c-0.6-7.4,4.4-13.3,5.8-14.8c5.9-6.3,13.5-6.9,15.2-6.9
		c3.6-9.7,11.5-16.8,20.3-17.7c11.4-1.2,21.6,8.2,23.6,11.2c0.1,0.2,0.5,0.8,1.3,1.4c2.7,2.2,6.5,1.3,9.5,1.1
		c5.4-0.3,10.2,1.6,12.2,3c7.4,5.1,7.1,15.5,7,16.4c3.7,0.9,7.5,1.8,10.6,4c3.1,2.1,5.6,5.7,5.3,9.5c-0.3,3.4-2.7,6.3-5.5,8.2
		c-7,4.8-14.8,4.9-21.6,4.8c0,0-7.6,0-37.2,0.4c-17.9,0.2-20.1,1.3-26.3-0.9C179.2,84.2,162.2,78.2,161.1,65.4z"/>
	<path id="XMLID_455_" class="st4" d="M464.1,57.3c-0.7-8.1,4.8-14.5,6.4-16.2c6.5-6.9,14.8-7.5,16.6-7.6
		C491,22.8,499.7,15,509.3,14c12.5-1.3,23.7,9,25.9,12.3c0.2,0.2,0.6,0.9,1.4,1.5c3,2.4,7.1,1.4,10.5,1.2c5.9-0.3,11.2,1.7,13.4,3.2
		c8.1,5.6,7.8,17,7.7,18c4,1,8.2,2,11.6,4.3c3.4,2.3,6.1,6.3,5.8,10.4c-0.3,3.7-3,6.9-6,9c-7.7,5.2-16.2,5.4-23.7,5.3
		c0,0-8.4,0-40.7,0.4c-19.6,0.3-22,1.4-28.9-1C483.9,77.9,465.3,71.3,464.1,57.3z"/>
</g>
<g id="Layer_2_1_">
	<circle id="XMLID_3_" class="st3" cx="71.4" cy="67" r="22.6"/>
	<path id="XMLID_58_" class="st6" d="M330.5,55.6c-0.6-6.5,3.8-11.6,5.1-13c5.2-5.5,11.8-6,13.3-6.1c3.1-8.5,10-14.7,17.8-15.5
		c10-1.1,18.9,7.2,20.7,9.8c0.1,0.2,0.5,0.7,1.1,1.2c2.4,2,5.7,1.1,8.4,1c4.7-0.3,8.9,1.4,10.7,2.6c6.5,4.5,6.2,13.6,6.2,14.4
		c3.2,0.8,6.5,1.6,9.3,3.5s4.9,5,4.6,8.3c-0.2,3-2.4,5.5-4.8,7.2c-6.1,4.2-13,4.3-19,4.2c0,0-6.7,0-32.6,0.3
		c-15.7,0.2-17.6,1.2-23.1-0.8C346.4,72.2,331.5,66.9,330.5,55.6z"/>
	<circle id="XMLID_57_" class="st7" cx="671.1" cy="63.6" r="17.5"/>
	<circle id="XMLID_56_" class="st8" cx="671.3" cy="62.4" r="15.4"/>
	<ellipse id="XMLID_55_" class="st9" cx="671.6" cy="61" rx="13.7" ry="13.5"/>
	<path id="XMLID_33_" class="st10" d="M177.6,67.5c-0.5-5.9,3.5-10.6,4.7-11.9c4.7-5,10.8-5.5,12.1-5.6c2.9-7.7,9.2-13.4,16.2-14.2
		c9.1-1,17.3,6.6,18.9,8.9c0.1,0.2,0.4,0.6,1,1.1c2.2,1.8,5.2,1,7.6,0.9c4.3-0.2,8.2,1.3,9.8,2.4c5.9,4.1,5.7,12.4,5.6,13.1
		c2.9,0.7,6,1.5,8.5,3.2c2.5,1.7,4.5,4.6,4.2,7.6c-0.2,2.7-2.2,5-4.4,6.6c-5.6,3.8-11.8,3.9-17.3,3.8c0,0-6.1,0-29.7,0.3
		c-14.3,0.2-16.1,1.1-21.1-0.7C192.1,82.6,178.5,77.8,177.6,67.5z"/>
	<path id="XMLID_38_" class="st6" d="M482.2,59.6c-0.6-6.5,3.8-11.6,5.1-13c5.2-5.5,11.8-6,13.3-6.1c3.1-8.5,10-14.7,17.8-15.5
		c10-1.1,18.9,7.2,20.7,9.8c0.1,0.2,0.5,0.7,1.1,1.2c2.4,2,5.7,1.1,8.4,1c4.7-0.3,8.9,1.4,10.7,2.6c6.5,4.5,6.2,13.6,6.2,14.4
		c3.2,0.8,6.5,1.6,9.3,3.5s4.9,5,4.6,8.3c-0.2,3-2.4,5.5-4.8,7.2c-6.1,4.2-13,4.3-19,4.2c0,0-6.7,0-32.6,0.3
		c-15.7,0.2-17.6,1.2-23.1-0.8C498.1,76.1,483.1,70.8,482.2,59.6z"/>
</g>
<g id="Layer_3">
	<circle id="XMLID_4_" class="st7" cx="72" cy="65.1" r="20.1"/>
	<circle id="XMLID_5_" class="st8" cx="72.2" cy="63.8" r="17.7"/>
	<path id="XMLID_45_" class="st11" d="M344.8,56.6c-0.5-5.2,3.1-9.3,4.1-10.4c4.1-4.4,9.5-4.8,10.6-4.9c2.5-6.8,8-11.8,14.2-12.4
		c8-0.8,15.1,5.8,16.6,7.8c0.1,0.1,0.4,0.6,0.9,1c1.9,1.6,4.5,0.9,6.7,0.8c3.8-0.2,7.2,1.1,8.6,2.1c5.2,3.6,5,10.9,4.9,11.5
		c2.6,0.6,5.2,1.3,7.4,2.8c2.2,1.5,3.9,4,3.7,6.7c-0.2,2.4-1.9,4.4-3.9,5.8c-4.9,3.3-10.4,3.4-15.2,3.4c0,0-5.3,0-26.1,0.3
		c-12.6,0.2-14.1,0.9-18.5-0.6C357.5,69.8,345.5,65.5,344.8,56.6z"/>
	<path id="XMLID_44_" class="st5" d="M354.7,56.6c-0.4-4.2,2.5-7.4,3.3-8.3c3.3-3.5,7.6-3.9,8.5-3.9c2-5.4,6.4-9.4,11.4-9.9
		c6.4-0.7,12.1,4.6,13.3,6.3c0.1,0.1,0.3,0.5,0.7,0.8c1.5,1.2,3.6,0.7,5.4,0.6c3-0.2,5.7,0.9,6.8,1.7c4.2,2.9,4,8.7,4,9.2
		c2.1,0.5,4.2,1,5.9,2.2c1.8,1.2,3.1,3.2,3,5.3c-0.2,1.9-1.5,3.5-3.1,4.6c-3.9,2.7-8.3,2.7-12.1,2.7c0,0-4.3,0-20.9,0.2
		c-10.1,0.1-11.3,0.7-14.8-0.5C364.8,67.1,355.3,63.8,354.7,56.6z"/>
	<ellipse id="XMLID_287_" class="st12" cx="671.9" cy="59.9" rx="12" ry="11.6"/>
	<circle id="XMLID_286_" class="st13" cx="672" cy="58.9" r="10"/>
	<circle id="XMLID_285_" class="st14" cx="672.8" cy="57.8" r="8"/>
	<circle id="XMLID_284_" class="st15" cx="673.5" cy="56.8" r="6.4"/>
	<circle id="XMLID_283_" class="st16" cx="674.1" cy="55.7" r="4.1"/>
	<path id="XMLID_281_" class="st2" d="M670.6,39.9h-1.4c-0.8,0-1.4-0.6-1.4-1.4V15.3c0-0.8,0.6-1.4,1.4-1.4h1.4
		c0.8,0,1.4,0.6,1.4,1.4v23.2C672,39.3,671.3,39.9,670.6,39.9z"/>
	<path id="XMLID_280_" class="st2" d="M670.6,120.1h-1.4c-0.8,0-1.4-0.6-1.4-1.4V95.5c0-0.8,0.6-1.4,1.4-1.4h1.4
		c0.8,0,1.4,0.6,1.4,1.4v23.2C672,119.5,671.3,120.1,670.6,120.1z"/>
	<path id="XMLID_279_" class="st2" d="M696.9,69v-1.4c0-0.8,0.6-1.4,1.4-1.4h23.2c0.8,0,1.4,0.6,1.4,1.4V69c0,0.8-0.6,1.4-1.4,1.4
		h-23.2C697.6,70.4,696.9,69.7,696.9,69z"/>
	<path id="XMLID_278_" class="st2" d="M616.7,69v-1.4c0-0.8,0.6-1.4,1.4-1.4h23.2c0.8,0,1.4,0.6,1.4,1.4V69c0,0.8-0.6,1.4-1.4,1.4
		h-23.2C617.3,70.4,616.7,69.7,616.7,69z"/>
	<path id="XMLID_277_" class="st2" d="M651.2,47.3l-1,1c-0.5,0.5-1.4,0.5-1.9,0l-16.4-16.4c-0.5-0.5-0.5-1.4,0-1.9l1-1
		c0.5-0.5,1.4-0.5,1.9,0l16.4,16.4C651.7,45.9,651.7,46.8,651.2,47.3z"/>
	<path id="XMLID_276_" class="st2" d="M707.9,104.1l-1,1c-0.5,0.5-1.4,0.5-1.9,0l-16.4-16.4c-0.5-0.5-0.5-1.4,0-1.9l1-1
		c0.5-0.5,1.4-0.5,1.9,0l16.4,16.4C708.5,102.7,708.5,103.5,707.9,104.1z"/>
	<path id="XMLID_275_" class="st2" d="M650.2,85.7l1,1c0.5,0.5,0.5,1.4,0,1.9L634.8,105c-0.5,0.5-1.4,0.5-1.9,0l-1-1
		c-0.5-0.5-0.5-1.4,0-1.9l16.4-16.4C648.8,85.2,649.7,85.2,650.2,85.7z"/>
	<path id="XMLID_274_" class="st2" d="M706.9,29l1,1c0.5,0.5,0.5,1.4,0,1.9l-16.4,16.4c-0.5,0.5-1.4,0.5-1.9,0l-1-1
		c-0.5-0.5-0.5-1.4,0-1.9L705,29C705.5,28.4,706.4,28.4,706.9,29z"/>
	<path id="XMLID_415_" class="st17" d="M190.6,68.4c-0.4-4.8,2.8-8.5,3.7-9.5c3.8-4,8.6-4.4,9.7-4.4c2.3-6.2,7.3-10.7,13-11.3
		c7.3-0.8,13.8,5.3,15.1,7.2c0.1,0.1,0.3,0.5,0.8,0.9c1.8,1.4,4.1,0.8,6.1,0.7c3.4-0.2,6.5,1,7.8,1.9c4.7,3.3,4.5,9.9,4.5,10.5
		c2.4,0.6,4.8,1.2,6.8,2.5c2,1.4,3.6,3.6,3.4,6.1c-0.2,2.2-1.7,4-3.5,5.3c-4.5,3.1-9.5,3.1-13.8,3.1c0,0-4.9,0-23.8,0.2
		c-11.5,0.2-12.8,0.8-16.8-0.6C202.2,80.4,191.3,76.6,190.6,68.4z"/>
	<path id="XMLID_414_" class="st18" d="M199.6,68.4c-0.3-3.8,2.2-6.8,3-7.6c3-3.2,6.9-3.5,7.8-3.6c1.8-5,5.9-8.6,10.4-9.1
		c5.8-0.6,11.1,4.2,12.1,5.7c0.1,0.1,0.3,0.4,0.6,0.7c1.4,1.1,3.3,0.7,4.9,0.6c2.8-0.2,5.2,0.8,6.2,1.5c3.8,2.6,3.6,7.9,3.6,8.4
		c1.9,0.5,3.8,0.9,5.4,2c1.6,1.1,2.9,2.9,2.7,4.9c-0.1,1.7-1.4,3.2-2.8,4.2c-3.6,2.4-7.6,2.5-11.1,2.5c0,0-3.9,0-19,0.2
		c-9.2,0.1-10.3,0.7-13.5-0.5C208.9,78,200.2,74.9,199.6,68.4z"/>
	<path id="XMLID_413_" class="st19" d="M206.1,68.7c-0.3-3,1.8-5.4,2.4-6.1c2.4-2.6,5.5-2.8,6.2-2.8c1.5-4,4.7-6.9,8.3-7.2
		c4.7-0.5,8.8,3.4,9.7,4.6c0.1,0.1,0.2,0.3,0.5,0.6c1.1,0.9,2.6,0.5,3.9,0.5c2.2-0.1,4.2,0.6,5,1.2c3,2.1,2.9,6.4,2.9,6.7
		c1.5,0.4,3.1,0.8,4.3,1.6c1.3,0.9,2.3,2.3,2.2,3.9c-0.1,1.4-1.1,2.6-2.3,3.4c-2.9,2-6.1,2-8.9,2c0,0-3.1,0-15.2,0.2
		c-7.3,0.1-8.2,0.5-10.8-0.4C213.5,76.4,206.5,74,206.1,68.7z"/>
	<path id="XMLID_453_" class="st11" d="M496.5,60.5c-0.5-5.2,3.1-9.3,4.1-10.4c4.1-4.4,9.5-4.8,10.6-4.9c2.5-6.8,8-11.8,14.2-12.4
		c8-0.8,15.1,5.8,16.6,7.8c0.1,0.1,0.4,0.6,0.9,1c1.9,1.6,4.5,0.9,6.7,0.8c3.8-0.2,7.2,1.1,8.6,2.1c5.2,3.6,5,10.9,4.9,11.5
		c2.6,0.6,5.2,1.3,7.4,2.8s3.9,4,3.7,6.7c-0.2,2.4-1.9,4.4-3.9,5.8c-4.9,3.3-10.4,3.4-15.2,3.4c0,0-5.3,0-26.1,0.3
		c-12.6,0.2-14.1,0.9-18.5-0.6C509.2,73.8,497.2,69.5,496.5,60.5z"/>
	<path id="XMLID_452_" class="st5" d="M506.4,60.5c-0.4-4.2,2.5-7.4,3.3-8.3c3.3-3.5,7.6-3.9,8.5-3.9c2-5.4,6.4-9.4,11.4-9.9
		c6.4-0.7,12.1,4.6,13.3,6.3c0.1,0.1,0.3,0.5,0.7,0.8c1.5,1.2,3.6,0.7,5.4,0.6c3-0.2,5.7,0.9,6.8,1.7c4.2,2.9,4,8.7,4,9.2
		c2.1,0.5,4.2,1,5.9,2.2c1.8,1.2,3.1,3.2,3,5.3c-0.2,1.9-1.5,3.5-3.1,4.6c-3.9,2.7-8.3,2.7-12.1,2.7c0,0-4.3,0-20.9,0.2
		c-10.1,0.1-11.3,0.7-14.8-0.5C516.5,71.1,507,67.7,506.4,60.5z"/>
</g>
<g id="Layer_4">
	<ellipse id="XMLID_6_" class="st9" cx="72.5" cy="62.2" rx="15.7" ry="15.5"/>
	<ellipse id="XMLID_7_" class="st12" cx="72.8" cy="60.8" rx="13.7" ry="13.4"/>
	<circle id="XMLID_8_" class="st13" cx="73" cy="59.7" r="11.5"/>
	<polygon id="XMLID_46_" class="st12" points="356.9,58.5 337.3,94.7 353.1,94.7 337.3,131.8 373.1,85.9 355.2,85.1 	"/>
	<polygon id="XMLID_42_" class="st14" points="356.8,63.8 341.4,92.8 353.9,92.8 341.4,122.4 369.7,85.7 355.5,85 	"/>
	<polygon id="XMLID_41_" class="st20" points="356.7,68 344.5,91.2 354.4,91.2 344.5,114.9 366.9,85.6 355.7,85 	"/>
	<path id="XMLID_26_" class="st5" d="M627.5,104.4c-0.6-7.4,4.4-13.3,5.8-14.8c5.9-6.3,13.5-6.9,15.2-6.9
		C652.1,73,660,65.9,668.8,65c11.4-1.2,21.6,8.2,23.6,11.2c0.1,0.2,0.5,0.8,1.3,1.4c2.7,2.2,6.5,1.3,9.5,1.1
		c5.4-0.3,10.2,1.6,12.2,3c7.4,5.1,7.1,15.5,7,16.4c3.7,0.9,7.5,1.8,10.6,4c3.1,2.2,5.6,5.7,5.3,9.5c-0.3,3.4-2.7,6.3-5.5,8.2
		c-7,4.8-14.8,4.9-21.6,4.8c0,0-7.6,0-37.2,0.4c-17.9,0.2-20.1,1.3-26.3-0.9C645.6,123.3,628.6,117.2,627.5,104.4z"/>
	<path id="XMLID_25_" class="st10" d="M644,106.5c-0.5-5.9,3.5-10.6,4.7-11.9c4.7-5,10.8-5.5,12.1-5.6c2.9-7.7,9.2-13.4,16.2-14.2
		c9.1-1,17.3,6.6,18.9,8.9c0.1,0.2,0.4,0.6,1,1.1c2.2,1.8,5.2,1,7.6,0.9c4.3-0.2,8.2,1.3,9.8,2.4c5.9,4.1,5.7,12.4,5.6,13.1
		c2.9,0.7,6,1.5,8.5,3.2s4.5,4.6,4.2,7.6c-0.2,2.7-2.2,5-4.4,6.6c-5.6,3.8-11.8,3.9-17.3,3.8c0,0-6.1,0-29.7,0.3
		c-14.3,0.2-16.1,1.1-21.1-0.7C658.5,121.6,644.9,116.8,644,106.5z"/>
	<path id="XMLID_24_" class="st5" d="M197.5,102.7c-0.5-5.8,3.4-10.3,4.5-11.5c4.6-4.9,10.5-5.3,11.8-5.4c2.8-7.5,8.9-13,15.7-13.7
		c8.8-0.9,16.7,6.4,18.3,8.7c0.1,0.2,0.4,0.6,1,1.1c2.1,1.7,5,1,7.4,0.9c4.2-0.2,7.9,1.2,9.5,2.3c5.7,4,5.5,12,5.5,12.7
		c2.9,0.7,5.8,1.4,8.2,3.1c2.4,1.6,4.3,4.4,4.1,7.4c-0.2,2.6-2.1,4.9-4.3,6.4c-5.4,3.7-11.5,3.8-16.8,3.7c0,0-5.9,0-28.8,0.3
		c-13.9,0.2-15.6,1-20.4-0.7C211.5,117.3,198.4,112.7,197.5,102.7z"/>
	<path id="XMLID_23_" class="st10" d="M210.3,104.4c-0.4-4.6,2.7-8.2,3.6-9.2c3.7-3.9,8.4-4.3,9.4-4.3c2.2-6,7.1-10.4,12.6-11
		c7.1-0.7,13.4,5.1,14.7,6.9c0.1,0.1,0.3,0.5,0.8,0.9c1.7,1.4,4,0.8,5.9,0.7c3.3-0.2,6.3,1,7.6,1.8c4.6,3.2,4.4,9.6,4.4,10.2
		c2.3,0.6,4.6,1.1,6.6,2.5c2,1.3,3.5,3.5,3.3,5.9c-0.2,2.1-1.7,3.9-3.4,5.1c-4.3,3-9.2,3-13.4,3c0,0-4.7,0-23.1,0.2
		c-11.1,0.1-12.5,0.8-16.3-0.6C221.5,116.1,211,112.3,210.3,104.4z"/>
	<path id="XMLID_32_" class="st10" d="M513.4,60.9c-0.3-3.3,2-6,2.6-6.7c2.6-2.8,6.1-3.1,6.8-3.1c1.6-4.3,5.1-7.5,9.1-7.9
		c5.1-0.5,9.7,3.7,10.6,5c0.1,0.1,0.2,0.4,0.6,0.6c1.2,1,2.9,0.6,4.3,0.5c2.4-0.1,4.6,0.7,5.5,1.3c3.3,2.3,3.2,7,3.2,7.4
		c1.7,0.4,3.3,0.8,4.8,1.8c1.4,1,2.5,2.6,2.4,4.3c-0.1,1.5-1.2,2.8-2.5,3.7c-3.1,2.1-6.6,2.2-9.7,2.2c0,0-3.4,0-16.7,0.2
		c-8,0.1-9,0.6-11.8-0.4C521.5,69.4,513.9,66.7,513.4,60.9z"/>
</g>
<g id="Layer_5">
	<circle id="XMLID_9_" class="st14" cx="73.9" cy="58.5" r="9.2"/>
	<circle id="XMLID_10_" class="st15" cx="74.6" cy="57.4" r="7.3"/>
	<circle id="XMLID_12_" class="st16" cx="75.4" cy="56" r="4.7"/>
	<path id="XMLID_11_" class="st2" d="M70.5,37.9L70.5,37.9c-1.3,0-2.4-1.1-2.4-2.4v-25c0-1.3,1.1-2.4,2.4-2.4l0,0
		c1.3,0,2.4,1.1,2.4,2.4v25C72.9,36.9,71.8,37.9,70.5,37.9z"/>
	<path id="XMLID_2_" class="st2" d="M70.5,130L70.5,130c-1.3,0-2.4-1.1-2.4-2.4v-25c0-1.3,1.1-2.4,2.4-2.4l0,0
		c1.3,0,2.4,1.1,2.4,2.4v25C72.9,129,71.8,130,70.5,130z"/>
	<path id="XMLID_16_" class="st2" d="M101.6,70.5L101.6,70.5c0-1.3,1.1-2.4,2.4-2.4h25c1.3,0,2.4,1.1,2.4,2.4l0,0
		c0,1.3-1.1,2.4-2.4,2.4h-25C102.7,72.9,101.6,71.8,101.6,70.5z"/>
	<path id="XMLID_15_" class="st2" d="M9.5,70.5L9.5,70.5c0-1.3,1.1-2.4,2.4-2.4h25c1.3,0,2.4,1.1,2.4,2.4l0,0c0,1.3-1.1,2.4-2.4,2.4
		h-25C10.6,72.9,9.5,71.8,9.5,70.5z"/>
	<path id="XMLID_18_" class="st2" d="M48.5,47.1L48.5,47.1c-0.9,0.9-2.4,0.9-3.4,0L27.4,29.4c-0.9-0.9-0.9-2.4,0-3.4l0,0
		c0.9-0.9,2.4-0.9,3.4,0l17.7,17.7C49.4,44.6,49.4,46.1,48.5,47.1z"/>
	<path id="XMLID_17_" class="st2" d="M113.6,112.2L113.6,112.2c-0.9,0.9-2.4,0.9-3.4,0L92.5,94.5c-0.9-0.9-0.9-2.4,0-3.4l0,0
		c0.9-0.9,2.4-0.9,3.4,0l17.7,17.7C114.6,109.7,114.6,111.2,113.6,112.2z"/>
	<path id="XMLID_20_" class="st2" d="M48.5,91.1L48.5,91.1c0.9,0.9,0.9,2.4,0,3.4l-17.7,17.7c-0.9,0.9-2.4,0.9-3.4,0l0,0
		c-0.9-0.9-0.9-2.4,0-3.4l17.7-17.7C46.1,90.2,47.6,90.2,48.5,91.1z"/>
	<path id="XMLID_19_" class="st2" d="M113.6,26L113.6,26c0.9,0.9,0.9,2.4,0,3.4L95.9,47.1c-0.9,0.9-2.4,0.9-3.4,0l0,0
		c-0.9-0.9-0.9-2.4,0-3.4L110.2,26C111.2,25.1,112.7,25.1,113.6,26z"/>
	<path id="XMLID_43_" class="st10" d="M361.7,56.9c-0.3-3.3,2-6,2.6-6.7c2.6-2.8,6.1-3.1,6.8-3.1c1.6-4.3,5.1-7.5,9.1-7.9
		c5.1-0.5,9.7,3.7,10.6,5c0.1,0.1,0.2,0.4,0.6,0.6c1.2,1,2.9,0.6,4.3,0.5c2.4-0.1,4.6,0.7,5.5,1.3c3.3,2.3,3.2,7,3.2,7.4
		c1.7,0.4,3.3,0.8,4.8,1.8c1.4,1,2.5,2.6,2.4,4.3c-0.1,1.5-1.2,2.8-2.5,3.7c-3.1,2.1-6.6,2.2-9.7,2.2c0,0-3.4,0-16.7,0.2
		c-8,0.1-9,0.6-11.8-0.4C369.8,65.4,362.2,62.7,361.7,56.9z"/>
	<g id="XMLID_176_">
		<path id="XMLID_47_" class="st21" d="M383.3,80.8c-0.7,0.1-1.2,1.4-1.5,2c-1.3,2.2-2.4,4.5-3.4,6.9c-1.1,2.5-2.9,5.9-2.8,8.7
			c0,1.3,0.6,2.6,1.3,3.7c1.4,2.2,3.7,4.1,6.3,4.1c2.1,0.1,4.1-1.1,5.6-2.5c1.8-1.6,3.2-3.8,2.9-6.2c-0.4-2.7-1.7-5.2-2.9-7.7
			c-1.1-2.1-2.2-4.2-3.3-6.2c-0.3-0.7-1-2.5-1.7-2.8C383.6,80.8,383.4,80.8,383.3,80.8z"/>
		<path id="XMLID_175_" class="st22" d="M383.4,83c-0.6,0.1-0.9,1.1-1.2,1.6c-1,1.8-1.9,3.6-2.7,5.5c-0.9,2-2.3,4.7-2.2,6.9
			c0,1.1,0.5,2.1,1,2.9c1.1,1.8,2.9,3.3,5,3.3c1.7,0,3.2-0.8,4.5-2c1.4-1.3,2.6-3,2.3-5c-0.3-2.2-1.3-4.2-2.3-6.1
			c-0.9-1.7-1.7-3.3-2.6-5c-0.3-0.5-0.8-2-1.3-2.2C383.6,83,383.5,82.9,383.4,83z"/>
		<path id="XMLID_177_" class="st23" d="M383.4,85.9c-0.4,0.1-0.7,0.8-0.9,1.2c-0.7,1.3-1.4,2.6-1.9,3.9c-0.6,1.4-1.6,3.3-1.6,4.9
			c0,0.7,0.3,1.5,0.7,2.1c0.8,1.3,2.1,2.3,3.6,2.4c1.2,0,2.3-0.6,3.2-1.4c1-0.9,1.8-2.1,1.6-3.5c-0.2-1.6-0.9-3-1.7-4.3
			c-0.6-1.2-1.2-2.4-1.9-3.5c-0.2-0.4-0.6-1.4-1-1.6C383.6,85.9,383.5,85.9,383.4,85.9z"/>
	</g>
	<g id="XMLID_180_">
		<path id="XMLID_183_" class="st21" d="M393.7,111.4c-0.5,0.1-0.7,0.9-1,1.3c-0.8,1.4-1.5,2.9-2.2,4.4c-0.7,1.6-1.8,3.7-1.8,5.5
			c0,0.8,0.4,1.6,0.8,2.3c0.9,1.4,2.3,2.6,4,2.6c1.3,0,2.6-0.7,3.6-1.6c1.1-1,2-2.4,1.8-3.9c-0.2-1.7-1.1-3.3-1.9-4.9
			c-0.7-1.3-1.4-2.6-2.1-4C394.7,112.7,394.3,111.5,393.7,111.4C393.9,111.4,393.8,111.4,393.7,111.4z"/>
		<path id="XMLID_182_" class="st22" d="M393.7,112.8c-0.4,0.1-0.6,0.7-0.8,1c-0.7,1.1-1.2,2.3-1.7,3.5c-0.5,1.3-1.4,3-1.4,4.4
			c0,0.7,0.3,1.3,0.7,1.9c0.7,1.1,1.9,2.1,3.2,2.1c1.1,0,2.1-0.5,2.8-1.3c0.9-0.8,1.6-1.9,1.5-3.2c-0.2-1.4-0.8-2.7-1.5-3.9
			c-0.6-1.1-1.1-2.1-1.7-3.2c-0.2-0.3-0.5-1.2-0.9-1.4C393.9,112.8,393.8,112.8,393.7,112.8z"/>
		<path id="XMLID_181_" class="st23" d="M393.8,114.7c-0.3,0-0.4,0.5-0.5,0.7c-0.5,0.8-0.9,1.6-1.2,2.5c-0.4,0.9-1,2.1-1,3.1
			c0,0.5,0.2,0.9,0.5,1.3c0.5,0.8,1.3,1.5,2.3,1.5c0.8,0,1.5-0.4,2-0.9c0.6-0.6,1.2-1.4,1-2.2c-0.1-1-0.6-1.9-1.1-2.8
			c-0.4-0.7-0.8-1.5-1.2-2.2c-0.1-0.2-0.4-0.9-0.6-1C393.9,114.7,393.8,114.6,393.8,114.7z"/>
	</g>
	<g id="XMLID_184_">
		<path id="XMLID_187_" class="st21" d="M400.7,97.5c-0.3,0.1-0.5,0.6-0.6,0.8c-0.5,0.9-1,1.9-1.4,2.9c-0.4,1.1-1.2,2.5-1.2,3.6
			c0,0.6,0.2,1.1,0.5,1.5c0.6,0.9,1.5,1.7,2.6,1.7c0.9,0,1.7-0.4,2.3-1c0.7-0.7,1.3-1.6,1.2-2.6c-0.2-1.1-0.7-2.2-1.2-3.2
			c-0.5-0.9-0.9-1.7-1.4-2.6C401.4,98.3,401.1,97.6,400.7,97.5C400.9,97.5,400.8,97.5,400.7,97.5z"/>
		<path id="XMLID_186_" class="st22" d="M400.8,98.4c-0.2,0-0.4,0.5-0.5,0.7c-0.4,0.7-0.8,1.5-1.1,2.3c-0.4,0.8-1,2-0.9,2.9
			c0,0.4,0.2,0.9,0.4,1.2c0.5,0.7,1.2,1.4,2.1,1.4c0.7,0,1.4-0.4,1.9-0.8c0.6-0.5,1.1-1.3,1-2.1c-0.1-0.9-0.6-1.8-1-2.6
			c-0.4-0.7-0.7-1.4-1.1-2.1c-0.1-0.2-0.3-0.8-0.6-0.9C400.9,98.4,400.8,98.4,400.8,98.4z"/>
		<path id="XMLID_185_" class="st23" d="M400.8,99.7c-0.2,0-0.3,0.3-0.4,0.5c-0.3,0.5-0.6,1.1-0.8,1.6c-0.3,0.6-0.7,1.4-0.7,2.1
			c0,0.3,0.1,0.6,0.3,0.9c0.3,0.5,0.9,1,1.5,1c0.5,0,1-0.2,1.3-0.6c0.4-0.4,0.8-0.9,0.7-1.5c-0.1-0.6-0.4-1.2-0.7-1.8
			c-0.3-0.5-0.5-1-0.8-1.5C401.1,100.2,401,99.8,400.8,99.7C400.9,99.7,400.8,99.7,400.8,99.7z"/>
	</g>
	<path id="XMLID_323_" class="st17" d="M657,107.4c-0.4-4.8,2.8-8.5,3.7-9.5c3.8-4,8.6-4.4,9.7-4.4c2.3-6.2,7.3-10.7,13-11.3
		c7.3-0.8,13.8,5.3,15.1,7.2c0.1,0.1,0.3,0.5,0.8,0.9c1.8,1.4,4.1,0.8,6.1,0.7c3.4-0.2,6.5,1,7.8,1.9c4.7,3.3,4.5,9.9,4.5,10.5
		c2.4,0.6,4.8,1.2,6.8,2.5c2,1.4,3.6,3.6,3.4,6.1c-0.2,2.2-1.7,4-3.5,5.3c-4.5,3.1-9.5,3.1-13.8,3.1c0,0-4.9,0-23.8,0.2
		c-11.5,0.2-12.8,0.8-16.8-0.6C668.6,119.5,657.7,115.6,657,107.4z"/>
	<path id="XMLID_322_" class="st18" d="M666,107.4c-0.3-3.8,2.2-6.8,3-7.6c3-3.2,6.9-3.5,7.8-3.6c1.8-5,5.9-8.6,10.4-9.1
		c5.8-0.6,11.1,4.2,12.1,5.7c0.1,0.1,0.3,0.4,0.6,0.7c1.4,1.1,3.3,0.7,4.9,0.6c2.8-0.2,5.2,0.8,6.2,1.5c3.8,2.6,3.6,7.9,3.6,8.4
		c1.9,0.5,3.8,0.9,5.4,2c1.6,1.1,2.9,2.9,2.7,4.9c-0.1,1.7-1.4,3.2-2.8,4.2c-3.6,2.4-7.6,2.5-11.1,2.5c0,0-3.9,0-19,0.2
		c-9.2,0.1-10.3,0.7-13.5-0.5C675.3,117,666.6,114,666,107.4z"/>
	<path id="XMLID_321_" class="st19" d="M672.5,107.7c-0.3-3,1.8-5.4,2.4-6.1c2.4-2.6,5.5-2.8,6.2-2.8c1.5-4,4.7-6.9,8.3-7.2
		c4.7-0.5,8.8,3.4,9.7,4.6c0.1,0.1,0.2,0.3,0.5,0.6c1.1,0.9,2.6,0.5,3.9,0.5c2.2-0.1,4.2,0.6,5,1.2c3,2.1,2.9,6.4,2.9,6.7
		c1.5,0.4,3.1,0.8,4.3,1.6c1.3,0.9,2.3,2.3,2.2,3.9c-0.1,1.4-1.1,2.6-2.3,3.4c-2.9,2-6.1,2-8.9,2c0,0-3.1,0-15.2,0.2
		c-7.3,0.1-8.2,0.5-10.8-0.4C679.9,115.4,672.9,113,672.5,107.7z"/>
	<path id="XMLID_421_" class="st17" d="M220.4,105c-0.3-3.7,2.2-6.6,2.9-7.4c2.9-3.1,6.7-3.4,7.5-3.4c1.8-4.8,5.7-8.3,10.1-8.8
		c5.7-0.6,10.7,4.1,11.7,5.5c0.1,0.1,0.3,0.4,0.6,0.7c1.4,1.1,3.2,0.6,4.7,0.5c2.7-0.2,5.1,0.8,6.1,1.5c3.7,2.5,3.5,7.7,3.5,8.2
		c1.8,0.4,3.7,0.9,5.3,2s2.8,2.8,2.6,4.7c-0.1,1.7-1.3,3.1-2.7,4.1c-3.5,2.4-7.3,2.4-10.7,2.4c0,0-3.8,0-18.4,0.2
		c-8.9,0.1-10,0.7-13.1-0.5C229.4,114.4,220.9,111.4,220.4,105z"/>
	<path id="XMLID_420_" class="st18" d="M227.4,105c-0.3-2.9,1.7-5.3,2.3-5.9c2.3-2.5,5.4-2.7,6-2.8c1.4-3.8,4.5-6.7,8-7
		c4.5-0.5,8.6,3.3,9.4,4.4c0.1,0.1,0.2,0.3,0.5,0.6c1.1,0.9,2.6,0.5,3.8,0.4c2.1-0.1,4,0.6,4.8,1.2c2.9,2,2.8,6.2,2.8,6.5
		c1.5,0.4,3,0.7,4.2,1.6c1.2,0.8,2.2,2.3,2.1,3.8c-0.1,1.4-1.1,2.5-2.2,3.3c-2.8,1.9-5.9,1.9-8.6,1.9c0,0-3,0-14.8,0.2
		c-7.1,0.1-8,0.5-10.5-0.4C234.6,112.5,227.8,110.1,227.4,105z"/>
	<path id="XMLID_419_" class="st19" d="M232.4,105.3c-0.2-2.4,1.4-4.2,1.8-4.7c1.9-2,4.3-2.2,4.8-2.2c1.1-3.1,3.6-5.3,6.4-5.6
		c3.6-0.4,6.9,2.6,7.5,3.6c0,0.1,0.2,0.3,0.4,0.4c0.9,0.7,2.1,0.4,3,0.4c1.7-0.1,3.2,0.5,3.9,0.9c2.3,1.6,2.2,4.9,2.2,5.2
		c1.2,0.3,2.4,0.6,3.4,1.3c1,0.7,1.8,1.8,1.7,3c-0.1,1.1-0.9,2-1.8,2.6c-2.2,1.5-4.7,1.6-6.9,1.5c0,0-2.4,0-11.8,0.1
		c-5.7,0.1-6.4,0.4-8.4-0.3C238.1,111.3,232.7,109.4,232.4,105.3z"/>
	
		<rect id="XMLID_456_" x="490.7" y="88.5" transform="matrix(0.8962 0.4436 -0.4436 0.8962 95.2254 -208.6147)" class="st21" width="5.6" height="21.4"/>
	
		<rect id="XMLID_29_" x="512.4" y="71.1" transform="matrix(0.8962 0.4436 -0.4436 0.8962 92.1348 -219.4966)" class="st21" width="5.6" height="32.1"/>
	
		<rect id="XMLID_496_" x="497.2" y="106.3" transform="matrix(0.8962 0.4436 -0.4436 0.8962 104.0896 -209.6124)" class="st21" width="5.6" height="22.8"/>
	
		<rect id="XMLID_497_" x="528.1" y="74.8" transform="matrix(0.8962 0.4436 -0.4436 0.8962 94.0535 -226.4077)" class="st21" width="5.6" height="26.1"/>
	
		<rect id="XMLID_498_" x="542.9" y="69.3" transform="matrix(0.8962 0.4436 -0.4436 0.8962 96.7856 -232.691)" class="st21" width="5.6" height="42.4"/>
	
		<rect id="XMLID_499_" x="517.1" y="103.1" transform="matrix(0.8962 0.4436 -0.4436 0.8962 102.7469 -219.2155)" class="st21" width="5.6" height="13.7"/>
	
		<rect id="XMLID_500_" x="500.3" y="73.4" transform="matrix(0.8962 0.4436 -0.4436 0.8962 87.8247 -214.8556)" class="st21" width="5.6" height="13.7"/>
</g>
</svg>
